<?xml version="1.0" standalone="no"?>
<!DOCTYPE svg PUBLIC "-//W3C//DTD SVG 20010904//EN"
 "http://www.w3.org/TR/2001/REC-SVG-20010904/DTD/svg10.dtd">
<svg version="1.0" xmlns="http://www.w3.org/2000/svg"
 width="518.000000pt" height="518.000000pt" viewBox="0 0 518.000000 518.000000"
 preserveAspectRatio="xMidYMid meet">

<g transform="translate(0.000000,518.000000) scale(0.100000,-0.100000)"
fill="#000000" stroke="none">
<path d="M468 2788 l-3 -83 -82 -3 -83 -3 0 -174 0 -174 78 -3 77 -3 3 -77 3
-78 174 0 175 0 0 85 0 85 85 0 85 0 0 175 0 174 -77 3 -78 3 -3 78 -3 77
-174 0 -174 0 -3 -82z m332 -13 l0 -74 78 -3 77 -3 3 -157 3 -158 -76 0 -75 0
0 80 0 80 -165 0 -165 0 0 155 0 155 160 0 160 0 0 -75z"/>
<path d="M1195 2860 c3 -5 13 -10 21 -10 11 0 14 -26 14 -148 0 -145 -1 -149
-22 -160 -20 -9 -15 -11 32 -11 48 0 53 1 37 13 -15 12 -17 28 -15 132 l3 118
51 -129 c29 -72 57 -130 64 -130 6 0 34 56 62 125 28 69 54 129 59 134 5 6 9
-41 9 -111 0 -115 -1 -123 -22 -137 -21 -15 -18 -16 52 -16 66 0 72 1 54 14
-17 13 -19 27 -19 155 0 128 2 141 20 156 19 14 16 15 -38 13 l-59 -3 -46
-112 c-25 -62 -48 -113 -52 -113 -3 0 -26 52 -50 115 l-44 115 -59 0 c-36 0
-56 -4 -52 -10z"/>
<path d="M1665 2860 c3 -5 13 -10 21 -10 11 0 14 -26 14 -148 0 -145 -1 -149
-22 -160 -19 -9 -8 -11 57 -11 65 0 76 2 58 11 -21 10 -23 18 -23 80 l0 68 29
0 c18 0 34 -8 44 -22 15 -22 16 -21 16 30 1 33 -3 51 -9 47 -5 -3 -10 -13 -10
-21 0 -9 -11 -14 -35 -14 l-35 0 0 70 0 70 46 0 c41 0 46 -2 56 -31 12 -36 28
-23 28 24 l0 27 -121 0 c-77 0 -118 -4 -114 -10z"/>
<path d="M1944 2861 c4 -6 14 -11 22 -11 11 0 14 -26 14 -148 0 -144 -1 -149
-22 -160 -18 -10 0 -11 92 -9 136 3 175 19 209 91 43 87 18 190 -54 226 -38
18 -271 28 -261 11z m200 -25 c45 -19 59 -58 54 -152 -3 -71 -6 -78 -36 -105
-24 -22 -42 -29 -72 -29 l-40 0 0 150 0 150 30 0 c17 0 45 -6 64 -14z"/>
<path d="M1768 2388 c17 -17 16 -185 0 -191 -7 -3 3 -5 22 -5 19 0 29 2 23 5
-9 3 -13 34 -13 104 0 95 -1 99 -22 99 -17 0 -19 -3 -10 -12z"/>
<path d="M1928 2393 c8 -3 12 -34 12 -104 l0 -99 38 0 c51 0 82 23 82 61 0 48
-16 69 -53 68 l-32 -1 28 -10 c32 -11 42 -42 28 -81 -8 -21 -17 -27 -41 -27
-31 0 -31 0 -30 53 4 132 2 147 -22 146 -13 0 -17 -3 -10 -6z"/>
<path d="M3918 2388 c16 -16 15 -68 0 -68 -10 0 -10 -2 0 -9 9 -5 13 -25 11
-62 -3 -51 -2 -54 21 -56 14 -1 19 0 13 3 -9 4 -13 35 -13 105 0 95 -1 99 -22
99 -17 0 -19 -3 -10 -12z"/>
<path d="M4618 2295 l3 -105 40 0 c46 0 79 27 79 66 0 43 -17 64 -53 63 -28 0
-30 -1 -10 -9 29 -12 46 -45 37 -73 -8 -27 -22 -37 -52 -37 -22 0 -23 4 -22
53 3 109 0 147 -12 147 -10 0 -12 -26 -10 -105z"/>
<path d="M1214 2368 c7 -13 27 -58 42 -100 16 -43 31 -78 35 -78 3 0 23 42 43
93 21 50 43 95 50 99 6 4 -2 7 -19 7 -16 0 -25 -3 -18 -5 8 -4 4 -24 -13 -72
-14 -37 -29 -71 -34 -75 -4 -5 -19 25 -33 67 -18 53 -22 76 -14 80 7 2 -3 5
-21 5 -31 1 -32 0 -18 -21z"/>
<path d="M3258 2384 c8 -4 12 -33 12 -94 0 -61 -4 -90 -12 -94 -7 -3 18 -4 56
-3 61 3 71 6 92 31 30 35 33 103 5 137 -16 20 -29 24 -92 26 -41 2 -68 0 -61
-3z m112 -14 c27 -14 41 -71 29 -115 -11 -39 -33 -55 -78 -55 l-31 0 0 90 0
90 31 0 c17 0 39 -5 49 -10z"/>
<path d="M3620 2375 c0 -8 5 -15 10 -15 6 0 10 7 10 15 0 8 -4 15 -10 15 -5 0
-10 -7 -10 -15z"/>
<path d="M4180 2375 c0 -8 5 -15 10 -15 6 0 10 7 10 15 0 8 -4 15 -10 15 -5 0
-10 -7 -10 -15z"/>
<path d="M1848 2363 c12 -2 30 -2 40 0 9 3 -1 5 -23 4 -22 0 -30 -2 -17 -4z"/>
<path d="M4528 2363 c12 -2 30 -2 40 0 9 3 -1 5 -23 4 -22 0 -30 -2 -17 -4z"/>
<path d="M2865 2343 c-4 -13 -10 -23 -14 -23 -7 0 -4 -67 5 -107 3 -18 11 -23
32 -22 17 1 20 3 10 6 -14 4 -18 15 -18 58 0 48 3 54 23 58 22 4 22 4 0 6 -14
1 -23 9 -26 24 l-4 22 -8 -22z"/>
<path d="M1376 2298 c-35 -50 -4 -108 57 -107 l32 0 -35 12 c-24 8 -36 19 -38
35 -3 20 1 22 42 22 25 0 46 2 46 4 0 22 -23 56 -37 55 -11 0 -13 -3 -5 -6 6
-2 12 -13 12 -24 0 -14 -7 -19 -30 -19 -31 0 -39 17 -18 38 9 9 9 12 1 12 -7
0 -19 -10 -27 -22z"/>
<path d="M1510 2305 c-17 -21 -5 -44 30 -56 38 -14 42 -49 6 -49 -13 0 -26 6
-29 13 -2 6 -8 9 -12 5 -22 -20 30 -37 69 -22 29 11 19 52 -16 70 -43 22 -43
21 -28 39 7 8 8 15 2 15 -5 0 -15 -7 -22 -15z"/>
<path d="M1565 2310 c3 -5 10 -10 16 -10 5 0 9 5 9 10 0 6 -7 10 -16 10 -8 0
-12 -4 -9 -10z"/>
<path d="M1636 2298 c-37 -52 -8 -108 55 -107 l34 0 -34 12 c-19 7 -37 22 -42
35 -8 21 -6 22 36 22 37 0 45 3 45 18 0 20 -18 42 -34 42 -6 0 -5 -5 2 -12 21
-21 13 -38 -18 -38 -31 0 -39 17 -18 38 9 9 9 12 1 12 -7 0 -19 -10 -27 -22z"/>
<path d="M1848 2313 c7 -3 12 -25 12 -58 0 -33 -5 -55 -12 -58 -7 -3 3 -5 22
-5 19 0 29 2 23 5 -9 3 -13 26 -13 64 0 55 -2 59 -22 58 -13 0 -17 -3 -10 -6z"/>
<path d="M2120 2313 c37 -7 43 -17 45 -70 2 -43 5 -48 26 -50 13 -1 18 0 12 3
-8 3 -13 25 -13 53 0 57 -13 71 -59 70 -28 -1 -30 -3 -11 -6z"/>
<path d="M2242 2308 c-20 -20 -14 -38 23 -59 19 -12 35 -25 35 -30 0 -16 -32
-23 -51 -10 -15 9 -19 8 -19 -4 0 -10 10 -15 33 -15 64 0 79 52 22 76 -35 14
-46 38 -22 47 6 3 7 6 2 6 -6 1 -16 -4 -23 -11z"/>
<path d="M2295 2310 c4 -6 11 -8 16 -5 14 9 11 15 -7 15 -8 0 -12 -5 -9 -10z"/>
<path d="M2420 2300 c-43 -43 -13 -110 48 -109 l37 0 -35 12 c-25 8 -36 19
-38 36 -5 36 6 69 26 74 16 4 16 5 0 6 -10 0 -27 -8 -38 -19z"/>
<path d="M2480 2316 c0 -2 7 -9 15 -16 12 -10 15 -10 15 4 0 9 -7 16 -15 16
-8 0 -15 -2 -15 -4z"/>
<path d="M2546 2298 c-35 -50 -7 -108 52 -107 l37 0 -35 12 c-24 8 -36 19 -38
35 -3 20 1 22 37 22 33 0 41 4 41 18 0 20 -18 42 -34 42 -6 0 -5 -5 2 -12 21
-21 13 -38 -18 -38 -31 0 -39 17 -18 38 9 9 9 12 1 12 -7 0 -19 -10 -27 -22z"/>
<path d="M2678 2314 c7 -4 12 -26 12 -59 0 -33 -5 -55 -12 -58 -7 -3 -2 -6 12
-6 24 -1 25 1 24 61 -2 58 -3 63 -25 65 -13 1 -18 0 -11 -3z"/>
<path d="M2750 2307 c20 -10 26 -21 28 -56 2 -28 -1 -47 -10 -52 -8 -6 0 -8
22 -8 19 0 29 3 23 6 -8 3 -13 23 -13 48 0 63 -7 75 -44 75 l-31 0 25 -13z"/>
<path d="M2955 2255 c0 -62 1 -65 24 -65 19 0 21 3 11 14 -6 9 -10 36 -9 63 3
36 0 49 -11 51 -12 2 -15 -11 -15 -63z"/>
<path d="M3000 2316 c0 -2 6 -9 14 -15 10 -9 15 -8 20 4 4 10 -1 15 -14 15
-11 0 -20 -2 -20 -4z"/>
<path d="M3067 2313 c-19 -18 -5 -50 29 -66 40 -19 41 -40 2 -45 -19 -2 -28 2
-31 15 -4 14 -5 13 -6 -4 -1 -20 4 -23 32 -23 64 0 79 51 22 74 -35 15 -46 40
-22 49 8 4 6 6 -4 6 -9 1 -19 -2 -22 -6z"/>
<path d="M3116 2313 c5 -5 12 -12 16 -18 4 -6 8 -2 8 8 0 9 -7 17 -17 17 -9 0
-12 -3 -7 -7z"/>
<path d="M3470 2303 c0 -14 2 -15 9 -5 4 8 20 12 35 10 l27 -3 -40 -57 -40
-58 54 0 c30 0 55 2 55 4 0 2 3 13 6 23 5 17 5 17 -6 1 -10 -17 -70 -26 -70
-12 0 4 16 29 35 55 19 27 35 51 35 54 0 3 -22 5 -50 5 -41 0 -50 -3 -50 -17z"/>
<path d="M3615 2255 c0 -63 1 -65 25 -64 14 0 19 3 13 6 -9 3 -13 26 -13 64 0
41 -4 59 -12 59 -9 0 -13 -20 -13 -65z"/>
<path d="M3706 2304 c-9 -8 -16 -31 -16 -49 0 -44 22 -65 68 -64 36 1 36 1 9
9 -70 21 -78 60 -12 60 37 0 45 3 45 18 0 20 -18 42 -34 42 -6 0 -5 -5 2 -12
23 -23 13 -38 -23 -38 -38 0 -44 10 -19 34 8 9 11 16 5 16 -5 0 -17 -7 -25
-16z"/>
<path d="M3847 2302 c-21 -23 -22 -76 -1 -96 8 -9 27 -16 42 -16 l27 0 -24 13
c-13 6 -29 19 -34 28 -15 23 0 68 26 79 21 9 21 9 1 9 -11 1 -28 -7 -37 -17z"/>
<path d="M4005 2255 c0 -63 1 -65 25 -65 17 0 21 3 12 9 -9 5 -13 25 -11 62 2
41 0 55 -11 57 -12 2 -15 -11 -15 -63z"/>
<path d="M4073 2309 c27 -11 29 -14 25 -65 -3 -52 -2 -54 22 -54 15 0 20 3 13
8 -6 4 -13 32 -15 62 l-3 55 -35 2 -35 2 28 -10z"/>
<path d="M4179 2264 c2 -40 -1 -59 -10 -65 -9 -6 -2 -8 21 -8 19 0 29 3 23 6
-9 3 -13 26 -13 64 0 40 -4 59 -12 59 -9 0 -12 -16 -9 -56z"/>
<path d="M4266 2304 c-9 -8 -16 -31 -16 -49 0 -44 22 -65 68 -64 36 1 36 1 9
9 -70 21 -78 60 -12 60 37 0 45 3 45 18 0 20 -18 42 -34 42 -6 0 -5 -5 2 -12
23 -23 13 -38 -23 -38 -38 0 -44 10 -19 34 8 9 11 16 5 16 -5 0 -17 -7 -25
-16z"/>
<path d="M4407 2302 c-21 -23 -22 -76 -1 -96 8 -9 30 -15 47 -15 24 1 26 3 10
6 -26 5 -53 39 -53 65 0 10 9 27 20 38 14 14 16 20 7 20 -8 0 -21 -8 -30 -18z"/>
<path d="M4466 2312 c6 -4 13 -14 16 -22 3 -10 6 -8 10 8 5 18 2 22 -15 22
-13 0 -17 -3 -11 -8z"/>
<path d="M4528 2313 c7 -3 12 -25 12 -58 0 -33 -5 -55 -12 -58 -7 -3 3 -5 22
-5 19 0 29 2 23 5 -9 3 -13 26 -13 64 0 55 -2 59 -22 58 -13 0 -17 -3 -10 -6z"/>
<path d="M4800 2313 c37 -7 43 -16 44 -70 1 -34 5 -49 16 -51 12 -2 14 8 11
50 -4 66 -14 78 -60 77 -27 -1 -30 -3 -11 -6z"/>
<path d="M2096 2244 c-23 -22 -4 -54 32 -53 26 0 26 1 5 9 -27 11 -30 35 -5
49 15 9 15 10 0 11 -9 0 -24 -7 -32 -16z"/>
<path d="M4771 2242 c-14 -26 5 -52 37 -51 26 0 26 1 5 9 -27 11 -31 47 -5 53
13 4 12 5 -5 6 -12 0 -27 -7 -32 -17z"/>
</g>
</svg>
