<?xml version="1.0" standalone="no"?>
<!DOCTYPE svg PUBLIC "-//W3C//DTD SVG 20010904//EN"
 "http://www.w3.org/TR/2001/REC-SVG-20010904/DTD/svg10.dtd">
<svg version="1.0" xmlns="http://www.w3.org/2000/svg"
 width="225.000000pt" height="225.000000pt" viewBox="0 0 225.000000 225.000000"
 preserveAspectRatio="xMidYMid meet">

<g transform="translate(0.000000,225.000000) scale(0.100000,-0.100000)"
fill="#000000" stroke="none">
<path d="M630 1860 l0 -240 -235 0 -235 0 0 -495 0 -495 235 0 235 0 0 -240 0
-240 495 0 495 0 0 240 0 240 235 0 235 0 -2 498 -3 497 -230 1 -230 2 -3 236
-2 236 -495 0 -495 0 0 -240z m948 -42 l2 -238 235 0 235 0 0 -450 0 -450
-215 0 -215 0 0 235 0 235 -472 2 -473 3 -3 440 c-1 242 0 446 3 453 3 10 99
12 452 10 l448 -3 3 -237z"/>
</g>
</svg>
